<?xml version="1.0" encoding="UTF-8" standalone="no"?>
<!-- Created with Inkscape (http://www.inkscape.org/) -->

<svg
   width="100mm"
   height="100mm"
   viewBox="0 0 100 100"
   version="1.1"
   id="svg1"
   xml:space="preserve"
   inkscape:version="1.3.2 (091e20e, 2023-11-25, custom)"
   sodipodi:docname="thumperwikisvg.svg"
   inkscape:export-filename="thumper wiki.png"
   inkscape:export-xdpi="96"
   inkscape:export-ydpi="96"
   xmlns:inkscape="http://www.inkscape.org/namespaces/inkscape"
   xmlns:sodipodi="http://sodipodi.sourceforge.net/DTD/sodipodi-0.dtd"
   xmlns:xlink="http://www.w3.org/1999/xlink"
   xmlns="http://www.w3.org/2000/svg"
   xmlns:svg="http://www.w3.org/2000/svg"><sodipodi:namedview
     id="namedview1"
     pagecolor="#ffffff"
     bordercolor="#000000"
     borderopacity="0.25"
     inkscape:showpageshadow="2"
     inkscape:pageopacity="0.0"
     inkscape:pagecheckerboard="0"
     inkscape:deskcolor="#d1d1d1"
     inkscape:document-units="mm"
     inkscape:zoom="1"
     inkscape:cx="196.5"
     inkscape:cy="362.5"
     inkscape:window-width="2560"
     inkscape:window-height="1334"
     inkscape:window-x="-11"
     inkscape:window-y="-11"
     inkscape:window-maximized="1"
     inkscape:current-layer="layer1" /><defs
     id="defs1"><linearGradient
       id="linearGradient16"
       inkscape:collect="always"><stop
         style="stop-color:#373cad;stop-opacity:1;"
         offset="0"
         id="stop10" /><stop
         style="stop-color:#e388cf;stop-opacity:1;"
         offset="0.5"
         id="stop11" /><stop
         style="stop-color:#c62c2c;stop-opacity:1;"
         offset="1"
         id="stop12" /></linearGradient><inkscape:path-effect
       effect="copy_rotate"
       starting_point="0,0"
       origin="50,50"
       id="path-effect10"
       is_visible="true"
       lpeversion="1.2"
       lpesatellites=""
       method="normal"
       num_copies="8"
       starting_angle="0"
       rotation_angle="45"
       gap="-0.01"
       copies_to_360="true"
       mirror_copies="false"
       split_items="false"
       link_styles="false" /><inkscape:path-effect
       effect="copy_rotate"
       starting_point="0,0"
       origin="50,50"
       id="path-effect9"
       is_visible="true"
       lpeversion="1.2"
       lpesatellites=""
       method="normal"
       num_copies="8"
       starting_angle="0"
       rotation_angle="45"
       gap="-0.01"
       copies_to_360="true"
       mirror_copies="false"
       split_items="false"
       link_styles="false" /><inkscape:path-effect
       effect="copy_rotate"
       starting_point="0,0"
       origin="50,50"
       id="path-effect3"
       is_visible="true"
       lpeversion="1.2"
       lpesatellites=""
       method="normal"
       num_copies="8"
       starting_angle="0"
       rotation_angle="60"
       gap="-0.01"
       copies_to_360="true"
       mirror_copies="false"
       split_items="false"
       link_styles="false" /><inkscape:path-effect
       effect="copy_rotate"
       starting_point="0,0"
       origin="50,50"
       id="path-effect10-1"
       is_visible="true"
       lpeversion="1.2"
       lpesatellites=""
       method="normal"
       num_copies="8"
       starting_angle="0"
       rotation_angle="45"
       gap="-0.01"
       copies_to_360="true"
       mirror_copies="false"
       split_items="false"
       link_styles="false" /><inkscape:path-effect
       effect="copy_rotate"
       starting_point="0,0"
       origin="50,50"
       id="path-effect10-4"
       is_visible="true"
       lpeversion="1.2"
       lpesatellites=""
       method="normal"
       num_copies="8"
       starting_angle="0"
       rotation_angle="45"
       gap="-0.01"
       copies_to_360="true"
       mirror_copies="false"
       split_items="false"
       link_styles="false" /><clipPath
       clipPathUnits="userSpaceOnUse"
       id="clipPath3"><rect
         style="fill:#000000;fill-opacity:1;stroke:none;stroke-width:1.08;stroke-linecap:round;stroke-linejoin:round;stroke-opacity:0"
         id="rect3"
         width="27.462269"
         height="67.791481"
         x="50.409348"
         y="17.207199"
         transform="matrix(-0.99993844,0.01109559,0.01109559,0.99993844,0,0)" /></clipPath><clipPath
       clipPathUnits="userSpaceOnUse"
       id="clipPath3-2"><rect
         style="fill:#000000;fill-opacity:1;stroke:none;stroke-width:1.08;stroke-linecap:round;stroke-linejoin:round;stroke-opacity:0"
         id="rect3-0"
         width="27.462269"
         height="67.791481"
         x="50.409348"
         y="17.207199"
         transform="matrix(-0.99993844,0.01109559,0.01109559,0.99993844,0,0)" /></clipPath><clipPath
       clipPathUnits="userSpaceOnUse"
       id="clipPath10"><path
         id="path10"
         style="fill:#0000ff;fill-opacity:1;stroke:none;stroke-width:0.380784;stroke-linecap:round;stroke-linejoin:round"
         d="m 4.7027942,-48.172487 c 1.2169549,-6.000269 4.8605895,-11.269042 10.0617938,-14.54975 5.211296,-3.283839 10.552929,-3.240227 16.27313,-1.588329 a 21.805046,22.178296 44.999995 0 1 3.495502,-3.905935 c -6.347023,-2.309254 -13.49707,-1.560253 -19.347672,2.124851 -6.2159867,3.919514 -10.1411828,10.629311 -10.4827538,17.919163 z m 9.3001728,15.662084 c 0.05447,5.345193 2.056506,10.525594 5.738873,14.507177 -3.368319,-5.031458 -4.474444,-11.270523 -3.054353,-17.229295 1.425468,-5.969529 5.29948,-9.716715 10.583125,-12.614126 a 21.805046,22.178296 44.999995 0 1 -0.304854,-3.184314 21.805046,22.178296 44.999995 0 1 0.05287,-2.001285 c -6.197558,2.883444 -10.809687,8.460843 -12.410811,15.160142 -0.424512,1.780123 -0.623007,3.579959 -0.604852,5.361701 z m 1.582005,-47.993448 c 5.089354,-3.454204 11.348097,-4.666387 17.283621,-3.347237 5.944893,1.32407 9.626763,5.133544 12.434684,10.366988 a 21.805046,22.178296 44.999995 0 1 3.191575,-0.355388 21.805046,22.178296 44.999995 0 1 2.023419,0.06819 c -2.771411,-6.174821 -8.283417,-10.712921 -14.974413,-12.204557 -7.092678,-1.577437 -14.56601,0.471374 -19.958886,5.472003 z m 12.458159,29.432136 a 20.736407,21.091365 44.999995 0 0 21.346536,20.108969 20.736407,21.091365 44.999995 0 0 20.473679,-21.69091 20.736407,21.091365 44.999995 0 0 -21.34601,-20.108478 20.736407,21.091365 44.999995 0 0 -20.474205,21.690419 z m 2.095325,-0.07926 c -0.216604,-10.378964 8.038438,-19.124593 18.422576,-19.517396 10.384138,-0.392802 18.990902,7.714992 19.207505,18.093956 0.216604,10.378967 -8.038438,19.124585 -18.422576,19.517388 -10.384138,0.392803 -18.990902,-7.714981 -19.207505,-18.093948 z m 0.790796,22.950424 c 0.182052,3.625444 1.261202,7.190247 3.220077,10.352182 3.814576,6.150354 10.458197,9.9622456 17.743307,10.1801309 C 45.912159,-8.7835224 40.704467,-12.338252 37.511572,-17.484516 34.305354,-22.657535 34.451158,-28.018635 36.216676,-33.789 a 21.805046,22.178296 44.999995 0 1 -3.854299,-3.399464 c -1.103946,2.906102 -1.584825,5.966935 -1.433125,8.987913 z m 0.339802,-22.993191 c 0.20385,9.767885 8.280566,17.376356 18.053323,17.00668 9.772761,-0.369676 17.517346,-8.576622 17.313496,-18.344507 -0.203851,-9.767896 -8.278455,-17.374375 -18.051215,-17.004699 -9.772757,0.369676 -17.519455,8.57463 -17.315604,18.342526 z m 1.768239,-0.06689 A 15.784097,16.054283 44.999995 0 1 48.621499,-67.770977 15.784097,16.054283 44.999995 0 1 64.869703,-52.46476 15.784097,16.054283 44.999995 0 1 49.285494,-35.954421 15.784097,16.054283 44.999995 0 1 33.037293,-51.26063 Z m 2.911126,0.727212 c 1.007649,3.757721 3.965041,2.560524 3.965041,2.560524 l -0.04462,-2.138188 c -0.0014,-0.06906 -1.413649,1.514314 -3.920418,-0.422336 z m -0.03491,-1.672832 c 2.422045,-2.123092 3.89806,-0.648963 3.896619,-0.718033 l -0.04462,-2.138187 c 0,0 -3.002656,-0.971745 -3.851996,2.85622 z m 4.314729,1.078836 0.102692,3.384241 c 1.494608,7.596928 8.826853,5.693926 8.826853,5.693926 4.322494,-1.355736 7.448076,-4.567602 8.890822,-6.306762 l -3.640877,-3.307775 z m -0.01689,-0.809308 14.179489,-0.53637 3.497179,-3.577789 c -1.513004,-1.627352 -4.767608,-4.597873 -9.139826,-5.624712 0,0 -7.400044,-1.345721 -8.575456,6.352206 z m 0.86756,3.980216 c 0.01936,-2.32971 2.260232,-2.237775 2.260232,-2.237775 0,0 1.80512,-0.03448 2.344848,1.816514 1.709984,5.864315 5.704989,4.731221 5.704989,4.731221 0,0 -0.405495,0.511927 -3.484582,1.108705 -0.542193,0.116532 -6.236086,0.53987 -6.82011,-5.185757 -0.0041,-0.08027 -0.006,-0.157759 -0.0054,-0.232908 z m -0.150478,-7.210427 c -0.0037,-0.07498 -0.0053,-0.152482 -0.0043,-0.232948 0.34431,-5.760744 6.046875,-5.768541 6.593073,-5.69314 3.09912,0.363074 3.525324,0.84354 3.525324,0.84354 0,0 -4.035959,-0.829305 -5.498667,5.155034 -0.461679,1.888851 -2.26539,1.990899 -2.26539,1.990899 0,0 -2.233504,0.261185 -2.349995,-2.063386 z m 4.733602,13.716143 c 0.458382,2.103501 1.686064,3.28857 4.138414,3.012943 -1.516372,-0.553021 -2.292708,-1.435352 -1.573348,-2.984376 -0.73969,0.08769 -1.467266,0.185052 -2.565066,-0.02857 z m -0.429036,-20.558057 c 1.087159,-0.296269 1.817648,-0.254076 2.559828,-0.222427 -0.782829,-1.4922 -0.04456,-2.431825 1.4464,-3.098604 -2.459977,-0.08981 -3.636297,1.186198 -4.006228,3.321031 z m 2.155726,32.054756 c 2.771414,6.17481 8.283417,10.712909 14.974412,12.204547 7.092678,1.577438 14.566011,-0.471374 19.958887,-5.472004 -5.089353,3.454205 -11.348095,4.666388 -17.283619,3.347236 -5.946082,-1.324323 -9.628688,-5.13493 -12.436817,-10.370009 a 21.805046,22.178296 44.999995 0 1 -3.189445,0.358412 21.805046,22.178296 44.999995 0 1 -2.023418,-0.06818 z m -1.374823,-66.103053 c 5.980477,1.115288 11.188169,4.670022 14.381061,9.816288 3.206232,5.173031 3.060437,10.534089 1.294896,16.304475 a 21.805046,22.178296 44.999995 0 1 3.854828,3.399963 c 2.428986,-6.393801 1.804269,-13.543801 -1.786962,-19.340613 -3.814627,-6.150354 -10.458766,-9.962218 -17.743873,-10.180111 z m 4.148968,54.442812 c 1.269797,1.745107 2.745548,2.331893 4.909219,1.365964 -1.628375,-0.04918 -2.683295,-0.969982 -2.638172,-2.565224 z m -0.429316,-20.571469 2.317481,1.025688 c -0.111584,-1.589314 0.903269,-2.588413 2.527025,-2.760608 -2.200543,-0.800843 -3.649493,-0.103422 -4.844506,1.73492 z m 4.332817,18.324785 c 1.524803,1.476153 2.929818,1.668428 4.5243,0.01958 -1.39775,0.420523 -2.363038,0.232339 -2.73109,-1.466963 z m -0.341773,-16.376719 1.850745,1.309533 c 0.2966,-1.724441 1.252517,-1.9853 2.6656,-1.671103 -1.660733,-1.525715 -3.055513,-1.227532 -4.516345,0.36157 z m 1.244637,8.147482 2.950856,2.556489 3.521608,-2.729477 -3.632884,-2.602546 z m 8.379014,16.57199 c 6.353382,2.320615 13.514742,1.574577 19.37321,-2.115477 6.215983,-3.919524 10.141192,-10.628801 10.482762,-17.918653 -1.216955,6.000269 -4.860589,11.269042 -10.061794,14.54975 -5.228178,3.294481 -10.587579,3.239656 -16.328808,1.57182 a 21.805046,22.178296 44.999995 0 1 -3.465378,3.91256 z m 7.288672,-20.35999 a 21.805046,22.178296 44.999995 0 1 0.304327,3.183823 21.805046,22.178296 44.999995 0 1 -0.10254,2.02487 c 6.222743,-2.876624 10.855058,-8.466449 12.460476,-15.183734 1.698055,-7.12047 -0.224194,-14.560099 -5.134018,-19.86888 3.368317,5.031459 4.474441,11.270533 3.054352,17.229297 -1.425441,5.969417 -5.299102,9.717238 -10.582597,12.614624 z" /></clipPath><inkscape:path-effect
       effect="copy_rotate"
       starting_point="48.543686,127.64983"
       origin="44.33347,127.64983"
       id="path-effect5"
       is_visible="true"
       lpeversion="1.2"
       lpesatellites=""
       method="normal"
       num_copies="5"
       starting_angle="0"
       rotation_angle="72"
       gap="-0.01"
       copies_to_360="true"
       mirror_copies="false"
       split_items="false"
       link_styles="false" /><linearGradient
       inkscape:collect="always"
       xlink:href="#linearGradient16"
       id="linearGradient22"
       gradientUnits="userSpaceOnUse"
       gradientTransform="matrix(1.2270493,0,0,1.2270493,-11.352456,-11.35247)"
       x1="13.06276"
       y1="90.748161"
       x2="86.937241"
       y2="9.2518406" /></defs><g
     inkscape:label="Layer 1"
     inkscape:groupmode="layer"
     id="layer1"><path
       id="path2-4-6-1"
       style="fill:url(#linearGradient22);stroke:#000000;stroke-width:0;stroke-linecap:square"
       d="M 45.345036 0 C 33.601057 2.4358228 33.996137 11.79815 34.666618 15.584578 C 28.009293 16.583305 21.041859 19.651666 16.205212 25.636678 C 12.675432 30.004566 11.255303 35.729198 11.418424 41.68221 C 8.4714462 43.422097 -0.34179446 49.999489 8.5364299 62.60083 C 8.8592901 56.674198 11.688312 54.627272 13.854968 53.931075 C 14.537612 55.791929 15.335386 57.601907 16.259473 59.309041 C 16.667183 60.062221 17.131582 60.850324 17.621663 61.653601 C 14.97322 64.361892 9.6873746 71.746468 19.45721 80.634871 C 18.362378 73.484475 22.521708 71.529378 24.195422 71.036491 C 25.361975 72.555695 26.567346 74.080257 27.808639 75.605721 C 26.294058 77.546215 20.70094 85.978186 31.427539 93.121965 C 29.305462 86.230093 33.560811 84.007924 34.547245 83.593864 C 38.063885 87.622572 43.044897 92.397825 50.000049 100.0001 C 55.117345 94.492489 60.422419 89.172576 65.452852 83.593864 C 66.439287 84.007924 70.694639 86.230093 68.572559 93.121965 C 79.299174 85.978186 73.706026 77.546215 72.191459 75.605721 C 73.432756 74.080257 74.638128 72.555695 75.804675 71.036491 C 77.478381 71.529378 81.638231 73.484475 80.543404 80.634871 C 90.313235 71.746468 85.026887 64.361892 82.378434 61.653601 C 82.868543 60.850324 83.333443 60.062221 83.741142 59.309041 C 84.665229 57.601907 85.462998 55.791929 86.145646 53.931075 C 88.312299 54.627272 91.140809 56.674198 91.463668 62.60083 C 100.34191 49.999489 91.528724 43.422097 88.581673 41.68221 C 88.744802 35.729198 87.324675 30.004566 83.794885 25.636678 C 78.958239 19.651666 71.99132 16.583305 65.333997 15.584578 C 66.004466 11.79815 66.399041 2.4358328 54.655062 0 C 59.426612 2.7890416 61.53728 9.247203 57.187724 15.041976 C 56.439263 15.030076 55.627839 15.009037 55.006978 15.013037 C 52.916767 15.026237 51.623206 15.106571 51.623206 15.106571 L 48.376892 15.106571 C 48.376892 15.106571 47.083331 15.026237 44.993119 15.013037 C 44.372271 15.009137 43.560846 15.030076 42.812374 15.041976 C 38.462804 9.247203 40.573486 2.7890416 45.345036 0 z M 37.790975 20.948075 C 38.10337 20.950175 38.399791 20.958813 38.677226 20.970813 C 43.116149 21.163803 45.479922 30.041889 38.918038 33.901807 C 32.356178 37.761735 28.548112 38.673137 23.068359 43.841252 C 21.692376 45.138976 20.424126 47.741229 20.334676 51.755497 C 20.334676 51.755497 13.490589 41.621986 19.280477 31.586186 C 24.708497 22.177623 33.105073 20.910575 37.790975 20.948075 z M 62.209123 20.948075 C 66.895025 20.910565 75.291617 22.177124 80.719621 31.585669 C 86.509503 41.621469 79.665422 51.755497 79.665422 51.755497 C 79.575982 47.741239 78.308222 45.138976 76.932255 43.841252 C 71.452503 38.673137 67.643932 37.761735 61.08206 33.901807 C 54.5202 30.041899 56.884477 21.163813 61.323389 20.970813 C 61.600811 20.958813 61.896741 20.950075 62.209123 20.948075 z M 43.051119 43.286247 L 62.68713 43.286247 L 62.68713 49.024398 L 62.68713 69.4955 L 43.051119 69.4955 A 2.0523403 2.0523403 0 0 0 40.999048 71.548088 A 2.0523403 2.0523403 0 0 0 43.051119 73.600159 L 62.68713 73.600159 L 62.68713 77.286239 L 54.911894 77.286239 L 54.911894 86.347184 L 49.999532 83.159265 L 45.088204 86.347184 L 45.088204 77.286239 L 43.051119 77.286239 A 5.7381418 5.7381418 0 0 1 37.312968 71.548088 L 37.312968 49.024398 A 5.7381418 5.7381418 0 0 1 43.051119 43.286247 z M 44.459819 48.45544 C 43.609485 48.455375 42.920319 49.144546 42.920378 49.994881 C 42.92051 50.845063 43.609621 51.534379 44.459819 51.534322 L 55.532011 51.534322 L 55.532011 51.533289 C 55.534711 51.533484 55.537079 51.534127 55.540279 51.534322 C 56.390347 51.534184 57.07959 50.844933 57.07972 49.994881 C 57.079778 49.144685 56.390484 48.45557 55.540279 48.45544 C 55.537579 48.455602 55.535211 48.455737 55.532011 48.455957 L 55.532011 48.45544 L 44.459819 48.45544 z M 44.459819 54.133647 C 43.609485 54.133582 42.920319 54.823268 42.920378 55.673604 C 42.920509 56.5238 43.60962 57.213103 44.459819 57.213045 L 51.233049 57.213045 L 51.233049 57.212528 C 51.235948 57.212772 51.238417 57.21285 51.241317 57.213045 C 52.091383 57.212908 52.780627 56.523671 52.780758 55.673604 C 52.780817 54.823406 52.091518 54.133776 51.241317 54.133647 C 51.238417 54.133817 51.235948 54.134461 51.233049 54.13468 L 51.233049 54.133647 L 44.459819 54.133647 z " /></g></svg>
